<?xml version="1.0" encoding="UTF-8" standalone="no"?>
<!DOCTYPE svg PUBLIC "-//W3C//DTD SVG 1.1//EN"
 "http://www.w3.org/Graphics/SVG/1.1/DTD/svg11.dtd">
<!-- Generated by graphviz version 2.26.3 (20100126.1600)
 -->
<!-- Title: G Pages: 1 -->
<svg width="707pt" height="1070pt"
 viewBox="0.00 0.00 707.00 1070.00" xmlns="http://www.w3.org/2000/svg" xmlns:xlink="http://www.w3.org/1999/xlink">
<g id="graph1" class="graph" transform="scale(1 1) rotate(0) translate(4 1066)">
<title>G</title>
<polygon fill="white" stroke="white" points="-4,5 -4,-1066 704,-1066 704,5 -4,5"/>
<g id="graph2" class="cluster"><title>cluster_Global</title>
<polyline fill="none" stroke="gray" points="158,-44 679,-44 "/>
<path fill="none" stroke="gray" d="M679,-44C685,-44 691,-50 691,-56"/>
<polyline fill="none" stroke="gray" points="691,-56 691,-1042 "/>
<path fill="none" stroke="gray" d="M691,-1042C691,-1048 685,-1054 679,-1054"/>
<polyline fill="none" stroke="gray" points="679,-1054 158,-1054 "/>
<path fill="none" stroke="gray" d="M158,-1054C152,-1054 146,-1048 146,-1042"/>
<polyline fill="none" stroke="gray" points="146,-1042 146,-56 "/>
<path fill="none" stroke="gray" d="M146,-56C146,-50 152,-44 158,-44"/>
<text text-anchor="middle" x="418.5" y="-1040.1" font-family="Times Roman,serif" font-size="11.00" fill="gray">Global</text>
</g>
<g id="graph3" class="cluster"><title>cluster_\Masterminds</title>
<polyline fill="none" stroke="gray" points="166,-52 671,-52 "/>
<path fill="none" stroke="gray" d="M671,-52C677,-52 683,-58 683,-64"/>
<polyline fill="none" stroke="gray" points="683,-64 683,-1012 "/>
<path fill="none" stroke="gray" d="M683,-1012C683,-1018 677,-1024 671,-1024"/>
<polyline fill="none" stroke="gray" points="671,-1024 166,-1024 "/>
<path fill="none" stroke="gray" d="M166,-1024C160,-1024 154,-1018 154,-1012"/>
<polyline fill="none" stroke="gray" points="154,-1012 154,-64 "/>
<path fill="none" stroke="gray" d="M154,-64C154,-58 160,-52 166,-52"/>
<text text-anchor="middle" x="418.5" y="-1010.1" font-family="Times Roman,serif" font-size="11.00" fill="gray">Masterminds</text>
</g>
<g id="graph4" class="cluster"><title>cluster_\Masterminds\HTML5</title>
<polyline fill="none" stroke="gray" points="174,-106 663,-106 "/>
<path fill="none" stroke="gray" d="M663,-106C669,-106 675,-112 675,-118"/>
<polyline fill="none" stroke="gray" points="675,-118 675,-982 "/>
<path fill="none" stroke="gray" d="M675,-982C675,-988 669,-994 663,-994"/>
<polyline fill="none" stroke="gray" points="663,-994 174,-994 "/>
<path fill="none" stroke="gray" d="M174,-994C168,-994 162,-988 162,-982"/>
<polyline fill="none" stroke="gray" points="162,-982 162,-118 "/>
<path fill="none" stroke="gray" d="M162,-118C162,-112 168,-106 174,-106"/>
<text text-anchor="middle" x="418.5" y="-980.1" font-family="Times Roman,serif" font-size="11.00" fill="gray">HTML5</text>
</g>
<g id="graph5" class="cluster"><title>cluster_\Masterminds\HTML5\Serializer</title>
<polyline fill="none" stroke="gray" points="355,-782 640,-782 "/>
<path fill="none" stroke="gray" d="M640,-782C646,-782 652,-788 652,-794"/>
<polyline fill="none" stroke="gray" points="652,-794 652,-952 "/>
<path fill="none" stroke="gray" d="M652,-952C652,-958 646,-964 640,-964"/>
<polyline fill="none" stroke="gray" points="640,-964 355,-964 "/>
<path fill="none" stroke="gray" d="M355,-964C349,-964 343,-958 343,-952"/>
<polyline fill="none" stroke="gray" points="343,-952 343,-794 "/>
<path fill="none" stroke="gray" d="M343,-794C343,-788 349,-782 355,-782"/>
<text text-anchor="middle" x="497.5" y="-950.1" font-family="Times Roman,serif" font-size="11.00" fill="gray">Serializer</text>
</g>
<g id="graph6" class="cluster"><title>cluster_\Masterminds\HTML5\Parser</title>
<polyline fill="none" stroke="gray" points="182,-322 655,-322 "/>
<path fill="none" stroke="gray" d="M655,-322C661,-322 667,-328 667,-334"/>
<polyline fill="none" stroke="gray" points="667,-334 667,-762 "/>
<path fill="none" stroke="gray" d="M667,-762C667,-768 661,-774 655,-774"/>
<polyline fill="none" stroke="gray" points="655,-774 182,-774 "/>
<path fill="none" stroke="gray" d="M182,-774C176,-774 170,-768 170,-762"/>
<polyline fill="none" stroke="gray" points="170,-762 170,-334 "/>
<path fill="none" stroke="gray" d="M170,-334C170,-328 176,-322 182,-322"/>
<text text-anchor="middle" x="418.5" y="-760.1" font-family="Times Roman,serif" font-size="11.00" fill="gray">Parser</text>
</g>
<!-- \\Masterminds\\HTML5\\Serializer\\OutputRules -->
<g id="node5" class="node"><title>\\Masterminds\\HTML5\\Serializer\\OutputRules</title>
<polygon fill="none" stroke="black" points="638,-934 554,-934 554,-898 638,-898 638,-934"/>
<text text-anchor="middle" x="596" y="-913.1" font-family="Times Roman,serif" font-size="11.00">OutputRules</text>
</g>
<!-- \\Masterminds\\HTML5\\Serializer\\RulesInterface -->
<g id="node8" class="node"><title>\\Masterminds\\HTML5\\Serializer\\RulesInterface</title>
<polygon fill="none" stroke="black" points="444,-934 352,-934 352,-898 444,-898 444,-934"/>
<text text-anchor="middle" x="398" y="-913.1" font-family="Times Roman,serif" font-size="11.00">RulesInterface</text>
</g>
<!-- \\Masterminds\\HTML5\\Serializer\\OutputRules&#45;&gt;\\Masterminds\\HTML5\\Serializer\\RulesInterface -->
<g id="edge9" class="edge"><title>\\Masterminds\\HTML5\\Serializer\\OutputRules&#45;&gt;\\Masterminds\\HTML5\\Serializer\\RulesInterface</title>
<path fill="none" stroke="black" stroke-dasharray="1,5" d="M553.524,-916C524.735,-916 486.355,-916 454.925,-916"/>
<polygon fill="none" stroke="black" points="454.557,-912.5 444.557,-916 454.557,-919.5 454.557,-912.5"/>
</g>
<!-- \\Masterminds\\HTML5\\Serializer\\Traverser -->
<g id="node6" class="node"><title>\\Masterminds\\HTML5\\Serializer\\Traverser</title>
<polygon fill="none" stroke="black" points="629,-880 563,-880 563,-844 629,-844 629,-880"/>
<text text-anchor="middle" x="596" y="-859.1" font-family="Times Roman,serif" font-size="11.00">Traverser</text>
</g>
<!-- \\Masterminds\\HTML5\\Serializer\\HTML5Entities -->
<g id="node7" class="node"><title>\\Masterminds\\HTML5\\Serializer\\HTML5Entities</title>
<polygon fill="none" stroke="black" points="643,-826 549,-826 549,-790 643,-790 643,-826"/>
<text text-anchor="middle" x="596" y="-805.1" font-family="Times Roman,serif" font-size="11.00">HTML5Entities</text>
</g>
<!-- \\Masterminds\\HTML5\\Parser\\StringInputStream -->
<g id="node10" class="node"><title>\\Masterminds\\HTML5\\Parser\\StringInputStream</title>
<polygon fill="none" stroke="black" points="456,-661 340,-661 340,-625 456,-625 456,-661"/>
<text text-anchor="middle" x="398" y="-640.1" font-family="Times Roman,serif" font-size="11.00">StringInputStream</text>
</g>
<!-- \\Masterminds\\HTML5\\Parser\\InputStream -->
<g id="node20" class="node"><title>\\Masterminds\\HTML5\\Parser\\InputStream</title>
<polygon fill="none" stroke="black" points="263,-679 179,-679 179,-643 263,-643 263,-679"/>
<text text-anchor="middle" x="221" y="-658.1" font-family="Times Roman,serif" font-size="11.00">InputStream</text>
</g>
<!-- \\Masterminds\\HTML5\\Parser\\StringInputStream&#45;&gt;\\Masterminds\\HTML5\\Parser\\InputStream -->
<g id="edge11" class="edge"><title>\\Masterminds\\HTML5\\Parser\\StringInputStream&#45;&gt;\\Masterminds\\HTML5\\Parser\\InputStream</title>
<path fill="none" stroke="black" stroke-dasharray="1,5" d="M339.062,-648.994C317.984,-651.137 294.379,-653.538 273.848,-655.626"/>
<polygon fill="none" stroke="black" points="273.327,-652.16 263.732,-656.654 274.035,-659.125 273.327,-652.16"/>
</g>
<!-- \\Masterminds\\HTML5\\Parser\\DOMTreeBuilder -->
<g id="node11" class="node"><title>\\Masterminds\\HTML5\\Parser\\DOMTreeBuilder</title>
<polygon fill="none" stroke="black" points="647,-744 545,-744 545,-708 647,-708 647,-744"/>
<text text-anchor="middle" x="596" y="-723.1" font-family="Times Roman,serif" font-size="11.00">DOMTreeBuilder</text>
</g>
<!-- \\Masterminds\\HTML5\\Parser\\EventHandler -->
<g id="node19" class="node"><title>\\Masterminds\\HTML5\\Parser\\EventHandler</title>
<polygon fill="none" stroke="black" points="442,-744 354,-744 354,-708 442,-708 442,-744"/>
<text text-anchor="middle" x="398" y="-723.1" font-family="Times Roman,serif" font-size="11.00">EventHandler</text>
</g>
<!-- \\Masterminds\\HTML5\\Parser\\DOMTreeBuilder&#45;&gt;\\Masterminds\\HTML5\\Parser\\EventHandler -->
<g id="edge13" class="edge"><title>\\Masterminds\\HTML5\\Parser\\DOMTreeBuilder&#45;&gt;\\Masterminds\\HTML5\\Parser\\EventHandler</title>
<path fill="none" stroke="black" stroke-dasharray="1,5" d="M544.495,-726C516.329,-726 481.441,-726 452.778,-726"/>
<polygon fill="none" stroke="black" points="452.524,-722.5 442.524,-726 452.524,-729.5 452.524,-722.5"/>
</g>
<!-- \\Masterminds\\HTML5\\Parser\\ParseError -->
<g id="node12" class="node"><title>\\Masterminds\\HTML5\\Parser\\ParseError</title>
<polygon fill="none" stroke="black" points="632,-420 560,-420 560,-384 632,-384 632,-420"/>
<text text-anchor="middle" x="596" y="-399.1" font-family="Times Roman,serif" font-size="11.00">ParseError</text>
</g>
<!-- \\Exception -->
<g id="node27" class="node"><title>\\Exception</title>
<ellipse fill="none" stroke="black" cx="398" cy="-18" rx="62.2254" ry="18.3848"/>
<text text-anchor="middle" x="398" y="-14.4" font-family="Times Roman,serif" font-size="14.00" fill="gray">\Exception</text>
</g>
<!-- \\Masterminds\\HTML5\\Parser\\ParseError&#45;&gt;\\Exception -->
<g id="edge15" class="edge"><title>\\Masterminds\\HTML5\\Parser\\ParseError&#45;&gt;\\Exception</title>
<path fill="none" stroke="black" d="M559.32,-392.402C549.436,-388.362 539.435,-382.74 532,-375 439.464,-278.673 409.554,-112.423 401.035,-46.3076"/>
<polygon fill="none" stroke="black" points="404.49,-45.728 399.803,-36.226 397.542,-46.5765 404.49,-45.728"/>
</g>
<!-- \\Masterminds\\HTML5\\Parser\\UTF8Utils -->
<g id="node13" class="node"><title>\\Masterminds\\HTML5\\Parser\\UTF8Utils</title>
<polygon fill="none" stroke="black" points="630,-636 562,-636 562,-600 630,-600 630,-636"/>
<text text-anchor="middle" x="596" y="-615.1" font-family="Times Roman,serif" font-size="11.00">UTF8Utils</text>
</g>
<!-- \\Masterminds\\HTML5\\Parser\\CharacterReference -->
<g id="node14" class="node"><title>\\Masterminds\\HTML5\\Parser\\CharacterReference</title>
<polygon fill="none" stroke="black" points="658,-582 534,-582 534,-546 658,-546 658,-582"/>
<text text-anchor="middle" x="596" y="-561.1" font-family="Times Roman,serif" font-size="11.00">CharacterReference</text>
</g>
<!-- \\Masterminds\\HTML5\\Parser\\Tokenizer -->
<g id="node15" class="node"><title>\\Masterminds\\HTML5\\Parser\\Tokenizer</title>
<polygon fill="none" stroke="black" points="629,-528 563,-528 563,-492 629,-492 629,-528"/>
<text text-anchor="middle" x="596" y="-507.1" font-family="Times Roman,serif" font-size="11.00">Tokenizer</text>
</g>
<!-- \\Masterminds\\HTML5\\Parser\\Scanner -->
<g id="node16" class="node"><title>\\Masterminds\\HTML5\\Parser\\Scanner</title>
<polygon fill="none" stroke="black" points="627,-474 565,-474 565,-438 627,-438 627,-474"/>
<text text-anchor="middle" x="596" y="-453.1" font-family="Times Roman,serif" font-size="11.00">Scanner</text>
</g>
<!-- \\Masterminds\\HTML5\\Parser\\FileInputStream -->
<g id="node17" class="node"><title>\\Masterminds\\HTML5\\Parser\\FileInputStream</title>
<polygon fill="none" stroke="black" points="647,-690 545,-690 545,-654 647,-654 647,-690"/>
<text text-anchor="middle" x="596" y="-669.1" font-family="Times Roman,serif" font-size="11.00">FileInputStream</text>
</g>
<!-- \\Masterminds\\HTML5\\Parser\\FileInputStream&#45;&gt;\\Masterminds\\HTML5\\Parser\\StringInputStream -->
<g id="edge17" class="edge"><title>\\Masterminds\\HTML5\\Parser\\FileInputStream&#45;&gt;\\Masterminds\\HTML5\\Parser\\StringInputStream</title>
<path fill="none" stroke="black" d="M544.753,-664.494C520.981,-661.012 492.379,-656.823 466.765,-653.072"/>
<polygon fill="none" stroke="black" points="467.142,-649.59 456.74,-651.603 466.127,-656.516 467.142,-649.59"/>
</g>
<!-- \\Masterminds\\HTML5\\Parser\\FileInputStream&#45;&gt;\\Masterminds\\HTML5\\Parser\\InputStream -->
<g id="edge19" class="edge"><title>\\Masterminds\\HTML5\\Parser\\FileInputStream&#45;&gt;\\Masterminds\\HTML5\\Parser\\InputStream</title>
<path fill="none" stroke="black" stroke-dasharray="1,5" d="M544.667,-672.67C492.203,-673.104 408.383,-673.107 336,-670 315.648,-669.126 293.314,-667.526 273.785,-665.915"/>
<polygon fill="none" stroke="black" points="273.815,-662.405 263.555,-665.049 273.224,-669.38 273.815,-662.405"/>
</g>
<!-- \\Masterminds\\HTML5\\Parser\\TreeBuildingRules -->
<g id="node18" class="node"><title>\\Masterminds\\HTML5\\Parser\\TreeBuildingRules</title>
<polygon fill="none" stroke="black" points="650,-366 542,-366 542,-330 650,-330 650,-366"/>
<text text-anchor="middle" x="596" y="-345.1" font-family="Times Roman,serif" font-size="11.00">TreeBuildingRules</text>
</g>
<!-- \\Iterator -->
<g id="node35" class="node"><title>\\Iterator</title>
<ellipse fill="none" stroke="black" cx="53" cy="-661" rx="51.8276" ry="18.3848"/>
<text text-anchor="middle" x="53" y="-657.4" font-family="Times Roman,serif" font-size="14.00" fill="gray">\Iterator</text>
</g>
<!-- \\Masterminds\\HTML5\\Parser\\InputStream&#45;&gt;\\Iterator -->
<g id="edge21" class="edge"><title>\\Masterminds\\HTML5\\Parser\\InputStream&#45;&gt;\\Iterator</title>
<path fill="none" stroke="black" d="M178.172,-661C159.207,-661 136.523,-661 115.706,-661"/>
<polygon fill="none" stroke="black" points="115.662,-657.5 105.662,-661 115.662,-664.5 115.662,-657.5"/>
</g>
<!-- \\Masterminds\\HTML5\\Exception -->
<g id="node21" class="node"><title>\\Masterminds\\HTML5\\Exception</title>
<polygon fill="none" stroke="black" points="631,-312 561,-312 561,-276 631,-276 631,-312"/>
<text text-anchor="middle" x="596" y="-291.1" font-family="Times Roman,serif" font-size="11.00">Exception</text>
</g>
<!-- \\Masterminds\\HTML5\\Exception&#45;&gt;\\Exception -->
<g id="edge7" class="edge"><title>\\Masterminds\\HTML5\\Exception&#45;&gt;\\Exception</title>
<path fill="none" stroke="black" d="M560.96,-284.147C550.781,-280.053 540.207,-274.466 532,-267 462.525,-203.798 422.052,-95.9916 406.035,-45.5499"/>
<polygon fill="none" stroke="black" points="409.371,-44.4927 403.071,-35.9747 402.684,-46.5625 409.371,-44.4927"/>
</g>
<!-- \\Masterminds\\HTML5\\Elements -->
<g id="node22" class="node"><title>\\Masterminds\\HTML5\\Elements</title>
<polygon fill="none" stroke="black" points="630,-258 562,-258 562,-222 630,-222 630,-258"/>
<text text-anchor="middle" x="596" y="-237.1" font-family="Times Roman,serif" font-size="11.00">Elements</text>
</g>
<!-- \\Masterminds\\HTML5\\Entities -->
<g id="node23" class="node"><title>\\Masterminds\\HTML5\\Entities</title>
<polygon fill="none" stroke="black" points="624,-204 568,-204 568,-168 624,-168 624,-204"/>
<text text-anchor="middle" x="596" y="-183.1" font-family="Times Roman,serif" font-size="11.00">Entities</text>
</g>
<!-- \\Masterminds\\HTML5\\InstructionProcessor -->
<g id="node24" class="node"><title>\\Masterminds\\HTML5\\InstructionProcessor</title>
<polygon fill="none" stroke="black" points="659,-150 533,-150 533,-114 659,-114 659,-150"/>
<text text-anchor="middle" x="596" y="-129.1" font-family="Times Roman,serif" font-size="11.00">InstructionProcessor</text>
</g>
<!-- \\Masterminds\\HTML5 -->
<g id="node25" class="node"><title>\\Masterminds\\HTML5</title>
<polygon fill="none" stroke="black" points="623,-96 569,-96 569,-60 623,-60 623,-96"/>
<text text-anchor="middle" x="596" y="-75.1" font-family="Times Roman,serif" font-size="11.00">HTML5</text>
</g>
</g>
</svg>
